<?xml version="1.0" encoding="utf-8"?>
<COLLADA xmlns="http://www.collada.org/2005/11/COLLADASchema" version="1.4.1" xmlns:xsi="http://www.w3.org/2001/XMLSchema-instance">
  <asset>
    <contributor>
      <author>Blender User</author>
      <authoring_tool>Blender 4.4.3 commit date:2025-04-29, commit time:14:09, hash:802179c51ccc</authoring_tool>
    </contributor>
    <created>2025-06-11T18:16:06</created>
    <modified>2025-06-11T18:16:06</modified>
    <unit name="meter" meter="1"/>
    <up_axis>Z_UP</up_axis>
  </asset>
  <library_cameras>
    <camera id="Camera-camera" name="Camera">
      <optics>
        <technique_common>
          <perspective>
            <xfov sid="xfov">39.59775</xfov>
            <aspect_ratio>1.777778</aspect_ratio>
            <znear sid="znear">0.1</znear>
            <zfar sid="zfar">100</zfar>
          </perspective>
        </technique_common>
      </optics>
      <extra>
        <technique profile="blender">
          <shiftx sid="shiftx" type="float">0</shiftx>
          <shifty sid="shifty" type="float">0</shifty>
          <dof_distance sid="dof_distance" type="float">10</dof_distance>
        </technique>
      </extra>
    </camera>
  </library_cameras>
  <library_lights>
    <light id="Light-light" name="Light">
      <technique_common>
        <point>
          <color sid="color">1000 1000 1000</color>
          <constant_attenuation>1</constant_attenuation>
          <linear_attenuation>0</linear_attenuation>
          <quadratic_attenuation>0</quadratic_attenuation>
        </point>
      </technique_common>
      <extra>
        <technique profile="blender">
          <type sid="type" type="int">0</type>
          <flag sid="flag" type="int">0</flag>
          <mode sid="mode" type="int">2097153</mode>
          <red sid="red" type="float">1</red>
          <green sid="green" type="float">1</green>
          <blue sid="blue" type="float">1</blue>
          <energy sid="blender_energy" type="float">1000</energy>
          <spotsize sid="spotsize" type="float">75</spotsize>
          <spotblend sid="spotblend" type="float">0.15</spotblend>
          <clipsta sid="clipsta" type="float">0.04999995</clipsta>
          <clipend sid="clipend" type="float">40</clipend>
          <radius sid="radius" type="float">0.1</radius>
          <area_shape sid="area_shape" type="int">1</area_shape>
          <area_size sid="area_size" type="float">0.1</area_size>
          <area_sizey sid="area_sizey" type="float">0.1</area_sizey>
          <area_sizez sid="area_sizez" type="float">1</area_sizez>
        </technique>
      </extra>
    </light>
  </library_lights>
  <library_effects>
    <effect id="Cargo_Container_01_Material_01-effect">
      <profile_COMMON>
        <newparam sid="Cargo_Container_01_UV_Map_01_jpg-surface">
          <surface type="2D">
            <init_from>Cargo_Container_01_UV_Map_01_jpg</init_from>
          </surface>
        </newparam>
        <newparam sid="Cargo_Container_01_UV_Map_01_jpg-sampler">
          <sampler2D>
            <source>Cargo_Container_01_UV_Map_01_jpg-surface</source>
          </sampler2D>
        </newparam>
        <technique sid="common">
          <lambert>
            <emission>
              <color sid="emission">0 0 0 1</color>
            </emission>
            <diffuse>
              <texture texture="Cargo_Container_01_UV_Map_01_jpg-sampler" texcoord="UVW"/>
            </diffuse>
            <index_of_refraction>
              <float sid="ior">1.5</float>
            </index_of_refraction>
          </lambert>
        </technique>
      </profile_COMMON>
    </effect>
  </library_effects>
  <library_images>
    <image id="Cargo_Container_01_UV_Map_01_jpg" name="Cargo_Container_01_UV_Map_01_jpg">
      <init_from>Cargo_Container_01_UV_Map_01.jpg</init_from>
    </image>
  </library_images>
  <library_materials>
    <material id="Cargo_Container_01_Material_01-material" name="Cargo_Container_01_Material_01">
      <instance_effect url="#Cargo_Container_01_Material_01-effect"/>
    </material>
  </library_materials>
  <library_geometries>
    <geometry id="Mesh-mesh" name="Mesh">
      <mesh>
        <source id="Mesh-mesh-positions">
          <float_array id="Mesh-mesh-positions-array" count="24">361.5 0 148 361.5 289 148 361.5 0 -148 361.5 289 -148 -361.5 0 -148 -361.5 289 -148 -361.5 0 148 -361.5 289 148</float_array>
          <technique_common>
            <accessor source="#Mesh-mesh-positions-array" count="8" stride="3">
              <param name="X" type="float"/>
              <param name="Y" type="float"/>
              <param name="Z" type="float"/>
            </accessor>
          </technique_common>
        </source>
        <source id="Mesh-mesh-normals">
          <float_array id="Mesh-mesh-normals-array" count="24">0.577372 0.5773394 -0.5773395 0.577372 -0.5773394 0.5773395 0.5773694 -0.577341 -0.5773404 -0.5773694 0.577341 -0.5773404 -0.577372 -0.5773394 -0.5773395 -0.577372 0.5773394 0.5773395 -0.5773694 -0.577341 0.5773404 0.5773694 0.577341 0.5773404</float_array>
          <technique_common>
            <accessor source="#Mesh-mesh-normals-array" count="8" stride="3">
              <param name="X" type="float"/>
              <param name="Y" type="float"/>
              <param name="Z" type="float"/>
            </accessor>
          </technique_common>
        </source>
        <source id="Mesh-mesh-map-0">
          <float_array id="Mesh-mesh-map-0-array" count="72">1.000244 0.9995848 0.6579414 0.002153873 1.000244 0.002153873 0.6555653 0.999961 0.001022577 -5.79596e-4 0.6555653 -5.79596e-4 0.9995182 0.9999558 0.6579166 8.78453e-4 0.9995182 8.78453e-4 0.6555653 0.999961 0.001022577 -5.79596e-4 0.6555653 -5.79596e-4 0.5253914 0.06837952 0.001185715 0.962255 0.002338469 0.06049406 0.5253914 0.06837952 0.001185715 0.962255 0.002338469 0.06049406 1.000244 0.9995848 0.6579414 0.9995848 0.6579414 0.002153873 0.6555653 0.999961 0.001022577 0.999961 0.001022577 -5.79596e-4 0.9995182 0.9999558 0.6579166 0.9999558 0.6579166 8.78453e-4 0.6555653 0.999961 0.001022577 0.999961 0.001022577 -5.79596e-4 0.5253914 0.06837952 0.5242385 0.9701405 0.001185715 0.962255 0.5253914 0.06837952 0.5242385 0.9701405 0.001185715 0.962255</float_array>
          <technique_common>
            <accessor source="#Mesh-mesh-map-0-array" count="36" stride="2">
              <param name="S" type="float"/>
              <param name="T" type="float"/>
            </accessor>
          </technique_common>
        </source>
        <vertices id="Mesh-mesh-vertices">
          <input semantic="POSITION" source="#Mesh-mesh-positions"/>
        </vertices>
        <triangles material="Cargo_Container_01_Material_01-material" count="12">
          <input semantic="VERTEX" source="#Mesh-mesh-vertices" offset="0"/>
          <input semantic="NORMAL" source="#Mesh-mesh-normals" offset="1"/>
          <input semantic="TEXCOORD" source="#Mesh-mesh-map-0" offset="2" set="0"/>
          <p>3 0 0 0 1 1 2 2 2 5 3 3 2 2 4 4 4 5 7 5 6 4 4 7 6 6 8 1 7 9 6 6 10 0 1 11 5 3 12 1 7 13 3 0 14 2 2 15 6 6 16 4 4 17 3 0 18 1 7 19 0 1 20 5 3 21 3 0 22 2 2 23 7 5 24 5 3 25 4 4 26 1 7 27 7 5 28 6 6 29 5 3 30 7 5 31 1 7 32 2 2 33 0 1 34 6 6 35</p>
        </triangles>
      </mesh>
    </geometry>
  </library_geometries>
  <library_visual_scenes>
    <visual_scene id="Scene" name="Scene">
      <node id="Cargo_Container_01" name="Cargo_Container_01" type="NODE">
        <matrix sid="transform">0.01 0 0 0 0 7.54979e-10 -0.01 0 0 0.01 7.54979e-10 -2.03771e-7 0 0 0 1</matrix>
        <instance_geometry url="#Mesh-mesh" name="Cargo_Container_01">
          <bind_material>
            <technique_common>
              <instance_material symbol="Cargo_Container_01_Material_01-material" target="#Cargo_Container_01_Material_01-material">
                <bind_vertex_input semantic="UVW" input_semantic="TEXCOORD" input_set="0"/>
              </instance_material>
            </technique_common>
          </bind_material>
        </instance_geometry>
      </node>
      <node id="Camera" name="Camera" type="NODE">
        <matrix sid="transform">0.6859207 -0.3240135 0.6515582 7.358891 0.7276763 0.3054208 -0.6141704 -6.925791 0 0.8953956 0.4452714 4.958309 0 0 0 1</matrix>
        <instance_camera url="#Camera-camera"/>
      </node>
      <node id="Light" name="Light" type="NODE">
        <matrix sid="transform">-0.2908646 -0.7711008 0.5663932 4.076245 0.9551712 -0.1998834 0.2183912 1.005454 -0.05518906 0.6045247 0.7946723 5.903862 0 0 0 1</matrix>
        <instance_light url="#Light-light"/>
      </node>
    </visual_scene>
  </library_visual_scenes>
  <scene>
    <instance_visual_scene url="#Scene"/>
  </scene>
</COLLADA>